<svg width="25" height="26" viewBox="0 0 25 26" fill="none" xmlns="http://www.w3.org/2000/svg">
<path d="M1.4399 0.539972C1.11397 0.931081 0.949454 1.43177 0.979901 1.93997V24.06C0.949454 24.5682 1.11397 25.0689 1.4399 25.46L1.5099 25.53L13.8999 13.15V12.86L1.5099 0.469971L1.4399 0.539972Z" fill="url(#paint0_linear_9_145)"/>
<path d="M17.9999 17.28L13.8999 13.15V12.86L17.9999 8.71997L18.0899 8.76997L22.9999 11.56C24.3999 12.35 24.3999 13.65 22.9999 14.45L18.1099 17.23L17.9999 17.28Z" fill="url(#paint1_linear_9_145)"/>
<path d="M18.1199 17.22L13.8999 13L1.43994 25.46C1.7253 25.7109 2.08933 25.8541 2.46912 25.8651C2.84891 25.876 3.22059 25.754 3.51994 25.52L18.1299 17.22" fill="url(#paint2_linear_9_145)"/>
<path d="M18.1199 8.78005L3.50993 0.480048C3.21058 0.246062 2.8389 0.124 2.45911 0.134956C2.07932 0.145911 1.71529 0.289197 1.42993 0.54005L13.8999 13L18.1199 8.78005Z" fill="url(#paint3_linear_9_145)"/>
<path opacity="0.2" d="M17.9999 17.1299L3.50994 25.3799C3.22123 25.5957 2.87042 25.7124 2.50994 25.7124C2.14946 25.7124 1.79865 25.5957 1.50994 25.3799L1.43994 25.4499L1.50994 25.5199C1.798 25.7373 2.14905 25.8549 2.50994 25.8549C2.87083 25.8549 3.22189 25.7373 3.50994 25.5199L18.1199 17.2199L17.9999 17.1299Z" fill="#2F313F"/>
<path opacity="0.12" d="M1.4399 25.32C1.11397 24.9289 0.949454 24.4282 0.979901 23.92V24.07C0.949454 24.5782 1.11397 25.0789 1.4399 25.47L1.5099 25.4L1.4399 25.32ZM22.9999 14.3L17.9999 17.13L18.0899 17.22L22.9999 14.44C23.2785 14.3091 23.5177 14.1071 23.6932 13.8543C23.8688 13.6014 23.9746 13.3068 23.9999 13C23.9437 13.2787 23.8243 13.5408 23.6509 13.7662C23.4776 13.9915 23.2549 14.1742 22.9999 14.3Z" fill="#2F313F"/>
<defs>
<linearGradient id="paint0_linear_9_145" x1="12.7999" y1="1.70997" x2="-3.9801" y2="18.49" gradientUnits="userSpaceOnUse">
<stop stop-color="#00A0FF"/>
<stop offset="0.01" stop-color="#00A1FF"/>
<stop offset="0.26" stop-color="#00BEFF"/>
<stop offset="0.51" stop-color="#00D2FF"/>
<stop offset="0.76" stop-color="#00DFFF"/>
<stop offset="1" stop-color="#00E3FF"/>
</linearGradient>
<linearGradient id="paint1_linear_9_145" x1="24.8299" y1="13" x2="0.639904" y2="13" gradientUnits="userSpaceOnUse">
<stop stop-color="#FFE000"/>
<stop offset="0.41" stop-color="#FFBD00"/>
<stop offset="0.78" stop-color="#FFA500"/>
<stop offset="1" stop-color="#FF9C00"/>
</linearGradient>
<linearGradient id="paint2_linear_9_145" x1="15.8299" y1="15.3" x2="-6.93006" y2="38.05" gradientUnits="userSpaceOnUse">
<stop stop-color="#FF3A44"/>
<stop offset="1" stop-color="#C31162"/>
</linearGradient>
<linearGradient id="paint3_linear_9_145" x1="-1.70007" y1="-6.81995" x2="8.45993" y2="3.34005" gradientUnits="userSpaceOnUse">
<stop stop-color="#32A071"/>
<stop offset="0.07" stop-color="#2DA771"/>
<stop offset="0.48" stop-color="#15CF74"/>
<stop offset="0.8" stop-color="#06E775"/>
<stop offset="1" stop-color="#00F076"/>
</linearGradient>
</defs>
</svg>
